<?xml version="1.0" standalone="no"?>
<!DOCTYPE svg PUBLIC "-//W3C//DTD SVG 20010904//EN"
 "http://www.w3.org/TR/2001/REC-SVG-20010904/DTD/svg10.dtd">
<svg version="1.0" xmlns="http://www.w3.org/2000/svg"
 width="640.000000pt" height="640.000000pt" viewBox="0 0 640.000000 640.000000"
 preserveAspectRatio="xMidYMid meet">
<metadata>
Created by potrace 1.14, written by Peter Selinger 2001-2017
</metadata>
<g transform="translate(0.000000,640.000000) scale(0.100000,-0.100000)"
fill="#000000" stroke="none">
<path d="M2166 4660 c-37 -22 -72 -40 -76 -40 -4 0 -13 -7 -20 -15 -7 -8 -16
-12 -21 -9 -5 3 -9 2 -9 -3 0 -4 -34 -26 -75 -48 -41 -22 -75 -43 -75 -47 0
-5 -5 -8 -10 -8 -6 0 -92 -47 -191 -105 -100 -58 -183 -105 -185 -105 -2 0
-27 -15 -56 -34 -29 -18 -63 -36 -75 -40 -13 -4 -23 -11 -23 -16 0 -4 -17 -15
-37 -24 -21 -9 -56 -28 -78 -42 -22 -13 -48 -27 -57 -31 -10 -3 -18 -10 -18
-15 0 -5 -4 -7 -10 -3 -5 3 -8 41 -7 85 0 44 -1 81 -4 84 -4 4 -197 9 -260 7
-13 -1 -16 -23 -16 -171 0 -94 -2 -172 -4 -174 -4 -3 -176 -99 -239 -132 -19
-11 -36 -22 -38 -26 -2 -5 -8 -8 -13 -8 -7 0 -108 -57 -159 -90 -8 -6 -22 -13
-30 -17 -8 -4 -44 -24 -79 -45 -52 -30 -61 -38 -41 -38 14 -1 115 -2 225 -4
110 -2 202 -4 205 -5 4 -1 5 -232 1 -251 0 -3 -18 -14 -38 -25 -21 -11 -65
-36 -99 -56 -33 -20 -70 -40 -82 -43 -12 -4 -20 -11 -17 -16 7 -11 65 -18 65
-8 0 5 6 6 12 2 18 -11 232 -5 236 6 2 6 8 10 14 10 5 0 22 8 36 19 23 15 64
39 167 95 11 6 23 15 26 19 3 5 9 8 13 8 3 -1 16 5 29 12 67 42 123 71 130 69
4 -1 7 1 7 5 0 5 26 22 58 38 31 17 59 33 62 36 3 3 37 23 75 44 39 21 82 46
98 57 15 11 27 16 27 12 0 -4 8 0 18 8 21 18 156 98 195 115 25 11 33 10 65
-10 60 -36 75 -45 120 -68 23 -13 42 -27 42 -32 0 -6 3 -8 6 -4 3 3 35 -12 70
-34 35 -21 67 -39 70 -39 3 0 19 -9 35 -21 16 -11 29 -17 29 -12 0 4 4 3 8 -3
4 -6 45 -33 92 -60 47 -26 87 -52 88 -56 2 -5 8 -6 13 -2 5 3 9 0 9 -5 0 -6 5
-11 11 -11 6 0 53 -25 104 -55 52 -30 99 -55 104 -55 6 0 11 -4 11 -10 0 -5 6
-10 13 -10 7 0 19 -6 25 -12 7 -7 16 -13 20 -13 4 0 24 -11 45 -24 34 -21 49
-23 168 -23 71 0 133 2 136 6 3 3 12 1 20 -5 7 -6 13 -8 13 -5 0 13 -25 33
-63 51 -20 9 -37 20 -37 24 0 3 86 6 190 6 l190 0 0 122 c0 78 -4 124 -11 129
-6 3 -54 6 -107 6 l-97 -1 40 24 c22 14 46 25 53 25 6 0 12 3 12 8 0 4 28 22
63 40 34 18 100 55 146 83 46 27 87 49 91 49 4 0 13 7 20 15 7 8 16 12 21 9 5
-3 9 -2 9 3 0 4 34 26 75 48 41 22 75 43 75 48 0 4 6 7 13 7 7 0 90 45 186
100 95 55 175 100 178 100 3 0 17 8 31 19 15 10 47 29 72 43 25 14 79 45 120
68 l74 43 56 -29 c30 -15 57 -31 60 -34 3 -3 16 -11 29 -18 13 -8 39 -23 58
-33 19 -11 67 -38 106 -61 136 -78 180 -103 231 -131 28 -16 60 -34 71 -41 11
-7 25 -15 30 -17 6 -2 59 -32 118 -66 59 -35 112 -63 118 -63 5 0 9 -3 9 -8 0
-4 15 -13 33 -21 17 -8 34 -17 37 -20 8 -9 82 -51 113 -64 15 -6 27 -15 27
-19 0 -4 7 -8 15 -8 8 0 15 -4 15 -10 0 -5 9 -10 19 -10 11 0 21 -4 23 -8 2
-5 39 -28 83 -52 44 -23 85 -47 90 -53 7 -7 6 -8 -2 -3 -22 12 -53 15 -53 5 0
-6 -6 -7 -12 -2 -16 10 -36 10 -70 2 -14 -4 -29 -4 -32 -1 -10 9 -46 9 -46 0
0 -5 -6 -6 -12 -2 -19 12 -98 11 -99 -1 -1 -5 -2 -82 -3 -171 l-1 -161 81 0
80 0 1 121 c1 67 2 123 2 126 1 3 128 5 284 4 155 0 286 2 290 4 5 2 -24 24
-65 47 -40 24 -77 47 -83 52 -5 4 -23 15 -40 23 -16 8 -32 17 -35 20 -3 3 -15
11 -27 18 -13 6 -33 18 -45 25 -13 6 -25 14 -28 17 -6 6 -42 26 -85 49 -16 9
-34 22 -38 29 -4 6 -13 12 -18 12 -6 0 -81 43 -168 95 -87 52 -165 97 -173
100 -12 5 -15 28 -15 116 -1 61 -3 112 -5 115 -5 5 -73 6 -108 1 -14 -2 -32 0
-41 4 -8 4 -21 4 -29 -1 -7 -4 -23 -5 -34 0 -31 11 -52 -1 -51 -30 1 -14 0
-28 -2 -32 -4 -9 -53 12 -53 23 0 4 -12 12 -27 18 -16 6 -35 15 -43 21 -14 9
-79 47 -160 92 -170 97 -266 153 -270 158 -3 3 -19 12 -37 19 -18 7 -38 19
-44 27 -9 12 -23 8 -83 -24 -39 -20 -73 -40 -76 -44 -3 -3 -39 -25 -80 -48
-41 -23 -91 -52 -110 -65 -19 -12 -91 -55 -160 -95 -69 -40 -152 -89 -185
-109 -33 -20 -63 -35 -67 -33 -5 1 -8 -3 -8 -8 0 -6 -7 -10 -15 -10 -8 0 -15
-4 -15 -10 0 -5 -5 -10 -10 -10 -14 0 -224 121 -228 132 -2 4 -8 6 -13 2 -5
-3 -9 0 -9 6 0 6 -4 8 -10 5 -5 -3 -10 -2 -10 3 0 5 -8 12 -17 15 -20 6 -95
49 -103 58 -3 3 -20 12 -37 20 -18 8 -33 17 -33 20 0 4 -11 10 -25 13 -14 4
-25 11 -25 16 0 6 -4 10 -10 10 -5 0 -44 20 -86 45 -41 25 -78 45 -80 45 -2 0
-23 12 -47 27 -42 27 -55 35 -144 84 -27 15 -70 40 -98 57 -27 17 -78 46 -112
64 -35 18 -63 36 -63 40 0 5 -4 8 -9 8 -5 0 -52 25 -105 55 -52 30 -96 55 -98
55 -2 0 -34 -18 -72 -40z m97 -154 c49 -31 113 -67 130 -73 9 -3 17 -9 17 -14
0 -5 4 -9 9 -9 5 0 48 -22 96 -50 48 -27 88 -50 90 -50 2 0 33 -18 69 -40 36
-22 70 -40 76 -40 5 0 10 -3 10 -8 0 -4 14 -13 31 -21 17 -7 53 -28 80 -46 27
-19 49 -32 49 -30 0 2 39 -19 88 -47 48 -28 105 -61 127 -73 22 -13 80 -46
128 -74 49 -28 93 -51 98 -51 5 0 9 -5 9 -12 0 -6 3 -9 6 -5 4 3 13 0 20 -8 8
-7 19 -15 26 -18 7 -2 11 -6 8 -9 -11 -11 -255 -152 -259 -149 -2 1 -7 -1 -10
-7 -3 -5 -28 -21 -56 -37 -27 -16 -58 -35 -67 -43 -10 -8 -18 -12 -18 -9 0 3
-24 -10 -52 -29 -29 -19 -58 -34 -65 -34 -7 0 -13 -4 -13 -8 0 -5 -18 -17 -40
-27 -22 -10 -40 -21 -40 -25 0 -5 -11 -11 -25 -14 -49 -12 -24 -22 63 -24 86
-2 96 -2 130 -1 9 0 26 0 37 0 11 -1 48 0 83 0 35 1 65 0 67 -2 5 -6 7 -39 6
-74 l-1 -30 -207 0 c-155 1 -214 4 -233 14 -92 50 -136 75 -145 81 -5 4 -30
19 -55 32 -25 14 -101 58 -168 97 -68 39 -128 71 -133 71 -5 0 -9 5 -9 10 0 6
-4 10 -9 10 -8 0 -236 127 -298 166 -13 8 -26 14 -29 13 -4 0 -10 3 -13 8 -3
4 -34 23 -67 41 l-62 32 -62 -35 c-34 -19 -66 -35 -71 -35 -5 0 -9 -4 -9 -10
0 -5 -4 -10 -10 -10 -13 0 -294 -162 -298 -172 -2 -4 -8 -8 -13 -8 -10 0 -226
-121 -271 -152 -16 -11 -28 -16 -28 -13 0 4 -7 -1 -16 -9 -8 -9 -21 -16 -29
-16 -7 0 -15 -3 -17 -7 -5 -13 -88 -55 -89 -46 -1 4 -2 53 -4 108 -1 55 -3
105 -4 110 0 7 -32 11 -81 10 -44 -1 -80 3 -80 7 0 4 7 8 15 8 8 0 15 4 15 8
0 5 16 14 35 22 19 8 35 17 35 22 0 4 4 8 9 8 5 0 79 41 165 90 86 50 161 90
166 90 6 0 10 4 10 8 0 5 16 14 35 22 19 8 35 17 35 22 0 4 6 8 14 8 8 0 21 6
28 13 7 6 31 21 53 32 22 11 42 22 45 26 3 3 30 19 60 35 85 46 104 58 112 69
4 6 8 6 8 1 0 -5 9 -1 20 9 11 10 20 14 20 9 0 -5 4 -4 8 2 7 10 42 33 115 73
20 12 54 31 75 42 20 12 53 30 72 41 19 11 53 30 75 44 22 13 47 27 55 31 8 4
38 22 67 40 29 18 54 33 57 33 3 0 42 22 88 50 46 27 84 50 86 50 1 0 13 -6
25 -14z"/>
<path d="M2225 4444 c-15 -7 -76 -43 -135 -79 -60 -36 -112 -65 -115 -65 -3 0
-11 -5 -18 -11 -10 -8 -109 -67 -452 -269 -253 -149 -571 -335 -627 -366 -41
-24 -44 -34 -10 -35 18 -1 40 -2 50 -2 15 -1 336 174 352 192 3 3 34 21 70 40
36 18 103 56 150 84 47 27 114 66 150 87 69 40 159 92 410 238 85 50 167 95
181 102 23 10 42 2 219 -101 107 -61 220 -125 250 -142 30 -17 57 -34 58 -39
2 -4 12 -8 22 -8 10 0 21 -4 24 -9 6 -8 126 -80 151 -90 6 -2 22 -13 38 -23
15 -11 27 -16 27 -11 0 4 4 3 8 -3 7 -11 65 -45 187 -110 39 -20 72 -40 75
-43 11 -13 27 -9 54 12 l27 22 -38 20 c-21 11 -67 36 -102 57 -34 21 -65 38
-67 38 -3 0 -23 12 -47 27 -23 15 -45 27 -49 28 -4 0 -13 6 -20 13 -6 6 -18
12 -25 12 -7 0 -13 5 -13 11 0 5 -4 8 -9 4 -5 -3 -12 -1 -15 4 -5 8 -114 74
-126 76 -3 1 -21 11 -40 23 -19 12 -47 28 -62 35 -16 6 -28 15 -28 19 0 5 -4
8 -9 8 -6 0 -58 28 -118 63 -59 35 -115 66 -123 70 -8 4 -22 11 -30 17 -8 5
-56 34 -107 64 -86 50 -93 53 -118 40z"/>
<path d="M2057 4142 c-14 -3 -17 -16 -17 -71 l0 -68 68 1 67 1 1 60 c1 33 -2
65 -5 70 -6 9 -78 14 -114 7z"/>
<path d="M2237 4138 c-7 -4 -12 -34 -12 -72 l0 -65 50 3 c27 1 58 -2 68 -6 18
-9 18 -11 19 85 0 26 -2 50 -4 53 -8 8 -109 10 -121 2z"/>
<path d="M2095 3962 c-4 -4 -16 -7 -28 -7 -20 0 -22 -6 -25 -66 l-3 -66 68 1
68 1 0 65 c0 60 -2 65 -22 66 -12 1 -28 4 -36 7 -8 3 -18 3 -22 -1z"/>
<path d="M2276 3963 c-4 -5 -17 -8 -29 -8 -20 0 -22 -5 -22 -65 l0 -65 67 -1
66 -2 4 37 c2 20 1 50 -2 66 -4 26 -10 30 -35 30 -17 -1 -33 3 -36 7 -3 5 -9
5 -13 1z"/>
<path d="M4385 4141 c-6 -5 -27 -19 -47 -30 -57 -31 -293 -169 -363 -212 -52
-32 -159 -91 -192 -107 -18 -9 -33 -20 -33 -24 0 -4 -4 -8 -10 -8 -5 0 -50
-25 -100 -55 -50 -30 -93 -55 -95 -55 -2 0 -33 -18 -67 -40 -35 -22 -69 -40
-75 -40 -7 0 -13 -3 -13 -7 0 -10 -62 -47 -72 -45 -5 1 -8 -3 -8 -8 0 -6 3
-10 8 -11 72 -8 91 -7 124 8 21 9 38 20 38 25 0 4 4 8 10 8 5 0 31 13 58 29
51 30 104 60 187 107 28 15 52 31 55 35 3 4 17 10 32 14 15 4 29 13 32 21 3 8
10 14 16 14 5 0 39 18 75 40 36 22 68 40 71 40 3 0 85 47 184 105 99 58 183
105 189 105 5 0 11 5 13 12 3 8 50 -15 129 -61 68 -40 144 -85 168 -99 25 -14
67 -38 93 -53 26 -16 48 -26 48 -22 0 3 8 -1 18 -10 9 -8 46 -32 82 -52 36
-21 79 -45 96 -55 17 -10 42 -24 55 -32 13 -7 26 -15 29 -18 3 -3 21 -13 40
-23 59 -31 95 -52 100 -57 5 -5 24 -16 99 -57 25 -14 51 -29 57 -34 12 -10
144 -7 144 3 0 4 -10 10 -22 14 -23 7 -78 43 -89 57 -3 5 -10 9 -15 9 -13 0
-138 71 -142 80 -2 4 -10 8 -17 8 -8 0 -20 6 -27 13 -7 7 -15 13 -18 13 -6 0
-91 48 -142 80 -21 13 -42 24 -48 24 -5 0 -10 5 -10 11 0 5 -4 8 -9 4 -5 -3
-12 -1 -15 4 -3 5 -34 24 -68 41 -35 18 -65 36 -68 39 -3 3 -24 15 -47 26 -24
11 -43 23 -43 28 0 4 -4 7 -9 7 -8 0 -150 80 -299 169 -56 33 -72 37 -87 22z"/>
<path d="M1719 3642 c-13 -10 -31 -22 -39 -25 -8 -4 -32 -17 -52 -29 -20 -13
-79 -47 -130 -77 -51 -30 -96 -59 -99 -64 -3 -5 -8 -8 -10 -7 -8 4 -59 -24
-59 -32 0 -4 -5 -8 -11 -8 -7 0 -40 -18 -75 -40 -35 -22 -64 -38 -64 -35 0 3
-10 -3 -22 -15 -20 -19 -33 -24 -50 -21 -5 0 -8 -4 -8 -10 0 -5 -15 -17 -32
-25 -18 -8 -66 -35 -106 -59 -41 -25 -78 -45 -83 -45 -6 0 -8 -4 -5 -8 7 -11
126 -7 135 4 3 5 26 20 51 33 25 13 50 28 57 33 7 5 27 17 45 27 56 29 83 46
90 56 4 6 8 6 8 1 0 -5 6 -4 13 2 16 13 391 230 439 254 l38 18 64 -40 c35
-22 67 -40 73 -40 5 0 18 -8 29 -18 10 -9 40 -28 67 -42 26 -14 47 -28 47 -32
0 -5 4 -8 9 -8 6 0 62 -31 127 -70 64 -38 119 -70 121 -70 2 0 24 -13 48 -30
24 -16 48 -30 53 -30 6 0 12 -3 14 -7 9 -21 78 -44 125 -42 27 1 54 -1 61 -5
8 -5 10 -2 6 8 -3 8 -14 18 -25 21 -10 4 -19 11 -19 17 0 6 -3 9 -6 6 -3 -3
-46 18 -95 48 -49 30 -94 54 -99 54 -6 0 -10 4 -10 9 0 5 -10 13 -22 17 -12 3
-28 13 -36 20 -7 8 -20 14 -28 14 -8 0 -14 4 -14 9 0 5 -11 12 -25 15 -14 4
-25 11 -25 17 0 6 -4 7 -10 4 -5 -3 -10 -1 -10 4 0 6 -7 11 -15 11 -8 0 -15 5
-15 10 0 6 -6 10 -14 10 -8 0 -21 6 -28 13 -7 6 -33 23 -58 36 -25 13 -52 29
-60 35 -8 7 -35 22 -60 36 -25 13 -48 28 -52 34 -5 7 -8 7 -8 1 0 -7 -3 -7 -8
0 -4 6 -27 21 -52 34 -25 14 -48 28 -51 33 -3 5 -16 0 -30 -10z"/>
<path d="M4236 3643 c-4 -4 -33 -8 -64 -8 l-57 0 0 -105 0 -105 108 -1 107 -1
0 107 0 107 -37 -1 c-21 -1 -41 2 -44 6 -3 5 -9 5 -13 1z"/>
<path d="M4405 3530 l0 -107 105 1 105 1 0 105 0 105 -105 1 -105 1 0 -107z"/>
<path d="M1559 3370 c-5 -21 -4 -81 0 -88 8 -12 51 -22 51 -13 0 4 10 7 23 7
20 -1 22 4 25 49 l3 50 -51 0 c-27 0 -50 -2 -51 -5z"/>
<path d="M1695 3370 c-1 -3 -3 -26 -4 -52 l-1 -48 50 0 c27 0 51 3 51 8 7 38
3 92 -5 93 -38 4 -88 3 -91 -1z"/>
<path d="M4123 3343 c-4 -2 -8 -49 -7 -105 l1 -103 104 0 104 0 3 103 c2 77 0
102 -10 104 -24 3 -187 3 -195 1z"/>
<path d="M4411 3341 c-7 -5 -9 -174 -2 -202 0 -4 47 -6 104 -5 l102 1 0 105 0
105 -97 1 c-54 0 -102 -2 -107 -5z"/>
<path d="M1559 3231 c-4 -30 -5 -78 -2 -87 2 -6 26 -11 52 -10 l49 0 -2 50 -1
50 -47 2 c-27 1 -48 -1 -49 -5z"/>
<path d="M1692 3186 l3 -51 40 -1 c58 -1 60 1 60 54 l0 47 -53 1 -53 0 3 -50z"/>
<path d="M3987 2983 c-3 -2 -13 -5 -24 -7 -10 -2 -36 -11 -56 -20 -21 -8 -38
-14 -40 -13 -1 1 -18 -14 -38 -33 -98 -96 -122 -278 -53 -398 33 -56 58 -79
125 -112 53 -25 63 -27 175 -24 139 3 145 4 162 17 6 5 12 7 12 3 0 -8 74 29
110 54 25 18 25 21 25 140 0 118 -1 123 -22 131 -13 5 -25 4 -28 -1 -3 -6 -15
-6 -30 0 -15 6 -27 6 -30 0 -3 -6 -15 -6 -29 0 -15 5 -27 5 -35 -3 -7 -7 -11
-7 -11 0 0 10 -41 10 -57 0 -5 -3 -15 -2 -23 3 -8 5 -21 5 -29 0 -15 -7 -18
-38 -12 -116 1 -7 21 -12 54 -12 77 0 77 0 77 -26 0 -43 -92 -71 -174 -54 -52
12 -84 50 -93 113 -9 62 -9 61 0 112 11 65 65 113 127 113 44 0 97 -25 104
-48 5 -16 13 -19 34 -15 15 3 41 6 57 8 17 1 30 4 30 5 0 1 13 3 29 5 56 7 58
11 37 52 -35 68 -86 108 -154 120 -39 6 -215 12 -220 6z"/>
<path d="M379 2965 c-5 -39 -3 -118 3 -128 5 -8 38 -12 100 -12 l93 0 2 -200
c1 -110 2 -210 2 -223 1 -22 3 -23 99 -20 l97 3 2 213 c1 118 5 217 8 220 4 4
41 8 83 8 43 1 84 2 94 3 13 1 16 13 15 74 l-2 72 -297 0 c-200 1 -298 -3
-299 -10z"/>
<path d="M1003 2973 c-10 -4 -13 -72 -13 -298 l0 -294 96 -3 c72 -2 98 0 101
10 3 7 6 61 7 120 l1 107 29 -3 c35 -4 39 -9 113 -134 l58 -98 106 0 c107 0
126 4 110 24 -4 6 -23 38 -41 71 -49 89 -76 126 -106 145 l-27 18 39 20 c136
70 117 274 -29 309 -27 6 -427 12 -444 6z m347 -143 c23 -23 25 -39 6 -65 -15
-20 -37 -26 -111 -28 l-50 -2 -3 44 c-5 68 -1 71 73 71 52 0 69 -4 85 -20z"/>
<path d="M1693 2967 c-3 -6 -6 -139 -6 -296 l-1 -286 100 -3 99 -3 0 298 0
297 -93 2 c-53 1 -95 -3 -99 -9z"/>
<path d="M2040 2679 l0 -297 51 -4 c28 -1 56 0 62 4 6 4 19 2 29 -3 21 -11 19
-33 20 246 0 182 0 188 14 140 32 -109 69 -245 90 -322 15 -56 19 -63 43 -64
14 -1 29 -1 33 0 4 0 27 2 50 2 l43 2 55 204 c30 113 57 206 60 208 3 2 4 -91
4 -206 l-2 -210 82 3 81 3 0 295 0 295 -127 1 c-136 0 -132 1 -144 -48 -1 -5
-2 -9 -4 -10 -1 -2 -3 -10 -5 -18 -8 -41 -69 -256 -75 -262 -3 -4 -21 47 -39
115 -18 67 -39 145 -47 173 l-14 50 -130 0 -130 -1 0 -296z"/>
<path d="M2884 2968 c-7 -11 -9 -577 -2 -583 4 -4 29 -6 81 -5 9 0 24 0 32 0
8 0 21 0 28 1 6 1 65 0 130 -2 64 -1 120 1 123 4 4 4 15 2 26 -4 10 -5 24 -6
31 -2 6 4 21 6 32 5 19 -3 21 2 19 65 -1 37 -3 70 -3 73 -1 3 -56 6 -123 7
-68 0 -136 1 -153 2 l-30 1 0 222 0 223 -93 1 c-51 1 -95 -3 -98 -8z"/>
<path d="M3482 2971 c-4 -3 -8 -138 -7 -298 l0 -293 50 -1 c28 -1 55 0 60 1
16 4 29 3 45 -4 8 -3 22 -2 30 4 13 8 15 53 15 300 1 159 -2 291 -5 291 -18 5
-181 4 -188 0z"/>
<path d="M4505 2971 c-3 -2 -5 -136 -5 -297 0 -241 2 -293 14 -297 8 -3 17 -3
20 0 3 3 41 7 83 7 l78 1 2 100 c1 55 2 108 2 117 1 15 14 16 106 15 l105 -1
0 -117 0 -118 50 3 c28 2 50 -1 50 -7 0 -5 7 -4 15 3 8 6 19 9 25 5 6 -4 22
-4 36 -1 l24 6 0 293 0 292 -100 1 -100 0 0 -103 0 -103 -30 -1 c-16 0 -59 0
-95 0 -36 0 -69 0 -75 0 -5 1 -11 47 -12 104 l-3 102 -93 1 c-51 0 -95 -2 -97
-5z"/>
<path d="M5181 2970 c-4 -3 -8 -35 -8 -72 0 -66 1 -68 26 -69 14 0 60 -1 101
-2 l74 -2 2 -215 c1 -118 2 -218 3 -221 1 -3 22 -7 47 -8 26 0 50 -4 55 -7 5
-3 9 -1 9 4 0 5 18 8 40 6 25 -1 40 2 41 9 0 7 2 106 2 222 l2 210 95 1 c52 1
98 2 101 3 4 1 4 118 0 141 -1 8 -579 7 -590 0z"/>
</g>
</svg>
